<svg width="760" height="200" xmlns="http://www.w3.org/2000/svg" xmlns:xlink="http://www.w3.org/1999/xlink" preserveAspectRatio="none" version="1.1">
 <defs>
  <g id="Layer0_0_FILL">
   <path id="svg_1" d="m343.65,432.25l0,37.5l33.75,-6.15l0,-36.5l-33.75,5.15m17.45,-23.3l-21.55,20.4l35.85,-5.45l-14.3,-14.95m-161.2,7.65l0,15.35l12.75,14.1l0,-26.6l-12.75,-2.85z" fill="#FE0100"/>
   <path id="svg_2" d="m327.6,435.8l15.45,-14.6l0,-34.2l-15.45,10.85l0,37.95m-1.6,-41.1l22.2,-15.6l-73.15,6.9l50.95,8.7z" fill="#E6BE01"/>
   <path id="svg_3" d="m222.1,421.55l-7.45,-1.65l0,28.35l13.6,15l0,-35.95l-6.15,-5.75m28.3,21.35l39.8,-6.05l-61.35,-13.75l2.15,2q0.1,0.05 0.2,0.15l19.2,17.65m3.2,3.05l0,40.2l39.5,-7.2l0,-39l-39.5,6z" fill="#F34923"/>
   <path id="svg_4" d="m248.1,485.15l0,-39.55l-16.35,-15.1l0,36.6l16.35,18.05m51.5,-46.2l-1,0.15l0,38.85l39.55,-7.2l0,-37.65l-3.1,0.45l-11.4,10.8l-24.05,-5.4z" fill="#94201F"/>
   <path id="svg_5" d="m322.1,440.45l0,-42.85l-43.4,-7.4l0,40.5l43.4,9.75m-93.9,-58.9l-33.25,-5.75l0,36.1l19.7,4.45q0.9,0.2 1.75,0.4l11.8,2.65l0,-37.85m4.1,-3.7l-25.15,-15.45l-9.75,10.25l34.25,5.9l0.65,-0.7m136.6,-0.7l-9.45,0.9l0,27.6l9.45,-9l0,-19.5z" fill="#F7DA00"/>
   <path id="svg_6" d="m290.85,333.75l-15.85,-6.35l-36.2,2.9l14.5,6.4l37.55,-2.95m-40.25,-19.9l9.05,3.65l31.95,-2.55l-10.55,-3.5l-30.45,2.4m63.2,8.45l-17.25,-5.7l-32.65,2.6l14.75,5.9l35.15,-2.8m-104.65,-5.15l5.1,2.25q0.1,0 0.2,0.1l3.15,1.35l34.25,-2.75l-9.1,-3.6l-33.6,2.65m178.3,14.5l-38.35,3l0,42.45l38.35,-4.1l0,-41.35m-43.85,46l0,-42.55l-40,3.15l0,43.7l40,-4.3m-16.05,-54.45l18.65,6.15l0.1,0l35.95,-2.85l-24.4,-5.7l-30.3,2.4z" fill="#4BAC35"/>
   <path id="svg_7" d="m298.1,338.7l-42.25,3.3l0,45l42.25,-4.5l0,-43.8m-64.75,-4.8l0,40.7l17,10.15l0,-43.35l-17,-7.5m-1.9,-6.85q0.15,0.05 0.35,0.1l3.15,1.45l35.85,-2.9l-14.75,-5.9l-34.65,2.75l10.05,4.5m120,-7.75l-22.5,-5.3l-23.55,1.9l17.25,5.7l28.8,-2.3z" fill="#00C255"/>
   <path id="svg_8" d="m300.65,332.95l0.05,0l36.55,-2.9l-18.6,-6.15l-35.8,2.85l15.85,6.35l1.75,-0.1l0.2,-0.05m21.85,-20.45l-13.75,-3.25l-18.8,1.5l10.5,3.5l22.05,-1.75m-112.15,48.4l0,-37.2l-12.25,-5.4l0,35.3l12.25,7.3m17.5,-29.45l-12,-5.3l0,38.05l12,7.15l0,-39.9z" fill="#7CBF00"/>
   <path id="svg_9" d="m242.25,383.95l-8.55,-1.45l0,38.1l39.5,8.9l0,-40.25l-11.5,-2l-12.15,1.15l-7.3,-4.45m113,-5.5l-10.2,7.15l0,33.7l12.4,-11.75l0,-29.3l-2.2,0.2z" fill="#F9C605"/>
   <path id="svg_10" d="m468.45,438.8l0,-4.9l-31.5,0l0,4.9l13.3,0l0,27.3l-13.3,0l0,4.9l31.5,0l0,-4.9l-13.3,0l0,-27.3l13.3,0m41.65,-4.9l-4.9,0l0,31.4l-22.3,-31.4l-7.1,0l0,37.1l4.9,0l0,-32.2l23.15,32.2l6.25,0l0,-37.1m39.55,4.9l0,-4.9l-32.9,0l0,4.9l14,0l0,32.2l4.9,0l0,-32.2l14,0m17.5,17.15l18.55,0l0,-4.9l-18.55,0l0,4.9m30.45,-22.05l-4.9,0l0,37.1l28.35,0l0,-4.9l-23.45,0l0,-32.2m-11.9,4.9l0,-4.9l-28.7,0l0,37.1l28.7,0l0,-4.9l-23.8,0l0,-27.3l23.8,0m48.05,-98.2l-52.4,0l0,11.2l40.8,0l0,46.8l-40.8,0l0,11.2l52.4,0l0,-69.2m-52.4,30.8l0,11.2l34.4,0l0,-11.2l-34.4,0m-72.4,-19.6l24,0l0,46.8l-24,0l0,11.2l59.6,0l0,-11.2l-24,0l0,-46.8l24,0l0,-11.2l-59.6,0l0,11.2m-72,0l24,0l0,58l11.6,0l0,-58l24,0l0,-11.2l-59.6,0l0,11.2m222.6,87l0,-4.9l-31.5,0l0,4.9l13.3,0l0,27.3l-13.3,0l0,4.9l31.5,0l0,-4.9l-13.3,0l0,-27.3l13.3,0m78.05,17.15l0,-4.9l-18.55,0l0,4.9l18.55,0m0,-17.15l0,-4.9l-28.7,0l0,37.1l28.7,0l0,-4.9l-23.8,0l0,-27.3l23.8,0m41.3,-4.9l-4.9,0l0,31.4l-22.3,-31.4l-7.1,0l0,37.1l4.9,0l0,-32.2l23.15,32.2l6.25,0l0,-37.1m59.5,17.15l0,4.9l18.55,0l0,-4.9l-18.55,0m-2.55,-41.25l-5.5,-11.2l-29,0l19,-38.55l24.5,49.75l12.95,0l-37.45,-76.05l-37.5,76.05l53,0m-16.35,29l0,-4.9l-32.9,0l0,4.9l14,0l0,32.2l4.9,0l0,-32.2l14,0m37.45,0l0,-4.9l-28.7,0l0,37.1l28.7,0l0,-4.9l-23.8,0l0,-27.3l23.8,0m-126.1,-87l33.3,0q8.6,11.25 0,19.6l-16.2,0l18.9,38.4l12.95,0l-13.4,-27.2q7.85,-3.15 10.8,-11.2q2.85,-8.3 0.4,-17.45q-1.85,-7 -7,-11.1q-3.1,-2.4 -6.15,-2.25l-45.2,0l0,69.2l11.6,0l0,-58m-33.75,-8.95q-3.1,-2.4 -6.15,-2.25l-45.2,0l0,69.2l11.6,0l0,-58l33.3,0q8.6,11.25 0,19.6l-16.2,0l18.9,38.4l12.95,0l-13.4,-27.2q7.85,-3.15 10.8,-11.2q2.85,-8.3 0.4,-17.45q-1.85,-7 -7,-11.1z" fill="#000000"/>
   <path id="svg_11" d="m683.05,451.05l0,4.9l18.55,0l0,-4.9l-18.55,0m12.45,-8.5q1.1,1.1 1.9,2.3q1.15,1.8 1.7,3.85l3.5,-3.7q-0.05,-0.05 -0.05,-0.15q-1.35,-3 -3.85,-5.5q-5.25,-5.25 -12.75,-5.25q-7.45,0 -12.75,5.25l-0.05,0l0,0.05q-5.25,5.3 -5.25,12.75q0,7.5 5.25,12.75q5.3,5.3 12.8,5.3q7.45,0 12.75,-5.3q1.6,-1.6 2.7,-3.35l-3.25,-3.4q-0.95,1.9 -2.6,3.55l-0.05,0l0,0.05q-3.95,3.95 -9.55,3.95q-5.6,0 -9.6,-4q-3.95,-3.95 -3.95,-9.55q0,-5.6 3.95,-9.6q4,-3.95 9.6,-3.95q5.6,0 9.55,3.95z" fill="#CC0000"/>
  </g>
 </defs>
 <g>
  <title>Layer 1</title>
  <g id="svg_12">
   <use x="-144" y="-298" id="svg_13" xlink:href="#Layer0_0_FILL"/>
  </g>
 </g>
</svg>